<svg width="557" height="324" viewBox="0 0 557 324" fill="none" xmlns="http://www.w3.org/2000/svg">
<path d="M118.479 312L327.979 29.4999M90.9793 107.5L16.9121 198.504C86.9796 112.5 117.48 314 222.912 170.504C328.345 27.009 397.979 33 428.912 142.504L395.479 29.4999" stroke="black" stroke-width="0.5"/>
<path d="M123.479 313C123.479 315.761 121.241 318 118.479 318C115.718 318 113.479 315.761 113.479 313C113.479 310.239 115.718 308 118.479 308C121.241 308 123.479 310.239 123.479 313Z" fill="#A020A2"/>
<path d="M118.479 305C122.898 305 126.479 308.582 126.479 313C126.479 317.418 122.898 321 118.479 321C114.061 321 110.479 317.418 110.479 313C110.479 308.582 114.061 305 118.479 305Z" stroke="#A020A2" stroke-opacity="0.35" stroke-width="6"/>
<circle cx="330.979" cy="26" r="5" fill="#A020A2"/>
<circle cx="330.979" cy="26" r="8" stroke="#A020A2" stroke-opacity="0.35" stroke-width="6"/>
<circle cx="393.979" cy="31" r="5" fill="#A020A2"/>
<circle cx="393.979" cy="31" r="8" stroke="#A020A2" stroke-opacity="0.35" stroke-width="6"/>
<circle cx="88.9794" cy="111" r="5" fill="#A020A2"/>
<circle cx="88.9794" cy="111" r="8" stroke="#A020A2" stroke-opacity="0.35" stroke-width="6"/>
<circle cx="17.9794" cy="198" r="5" fill="#4D6CEB"/>
<circle cx="17.9794" cy="198" r="8" stroke="#4D6CEB" stroke-opacity="0.35" stroke-width="6"/>
<circle cx="429.979" cy="142" r="5" fill="#4D6CEB"/>
<circle cx="429.979" cy="142" r="8" stroke="#4D6CEB" stroke-opacity="0.35" stroke-width="6"/>
<circle cx="221.979" cy="171" r="5" fill="#4D6CEB"/>
<circle cx="221.979" cy="171" r="8" stroke="#4D6CEB" stroke-opacity="0.35" stroke-width="6"/>
<path d="M448.5 181V169.547H452.82C453.581 169.547 454.161 169.583 454.562 169.656C455.125 169.75 455.596 169.93 455.977 170.195C456.357 170.456 456.661 170.823 456.891 171.297C457.125 171.771 457.242 172.292 457.242 172.859C457.242 173.833 456.932 174.659 456.312 175.336C455.693 176.008 454.573 176.344 452.953 176.344H450.016V181H448.5ZM450.016 174.992H452.977C453.956 174.992 454.651 174.81 455.062 174.445C455.474 174.081 455.68 173.568 455.68 172.906C455.68 172.427 455.557 172.018 455.312 171.68C455.073 171.336 454.755 171.109 454.359 171C454.104 170.932 453.633 170.898 452.945 170.898H450.016V174.992ZM458.469 176.852C458.469 175.315 458.896 174.177 459.75 173.438C460.464 172.823 461.333 172.516 462.359 172.516C463.5 172.516 464.432 172.891 465.156 173.641C465.88 174.385 466.242 175.417 466.242 176.734C466.242 177.802 466.081 178.643 465.758 179.258C465.44 179.867 464.974 180.341 464.359 180.68C463.75 181.018 463.083 181.188 462.359 181.188C461.198 181.188 460.258 180.815 459.539 180.07C458.826 179.326 458.469 178.253 458.469 176.852ZM459.914 176.852C459.914 177.914 460.146 178.711 460.609 179.242C461.073 179.768 461.656 180.031 462.359 180.031C463.057 180.031 463.638 179.766 464.102 179.234C464.565 178.703 464.797 177.893 464.797 176.805C464.797 175.779 464.562 175.003 464.094 174.477C463.63 173.945 463.052 173.68 462.359 173.68C461.656 173.68 461.073 173.943 460.609 174.469C460.146 174.995 459.914 175.789 459.914 176.852ZM467.906 171.164V169.547H469.312V171.164H467.906ZM467.906 181V172.703H469.312V181H467.906ZM471.461 181V172.703H472.727V173.883C473.336 172.971 474.216 172.516 475.367 172.516C475.867 172.516 476.326 172.607 476.742 172.789C477.164 172.966 477.479 173.201 477.688 173.492C477.896 173.784 478.042 174.13 478.125 174.531C478.177 174.792 478.203 175.247 478.203 175.898V181H476.797V175.953C476.797 175.38 476.742 174.953 476.633 174.672C476.523 174.385 476.328 174.159 476.047 173.992C475.771 173.82 475.445 173.734 475.07 173.734C474.471 173.734 473.953 173.924 473.516 174.305C473.083 174.685 472.867 175.406 472.867 176.469V181H471.461ZM483.438 179.742L483.641 180.984C483.245 181.068 482.891 181.109 482.578 181.109C482.068 181.109 481.672 181.029 481.391 180.867C481.109 180.706 480.911 180.495 480.797 180.234C480.682 179.969 480.625 179.414 480.625 178.57V173.797H479.594V172.703H480.625V170.648L482.023 169.805V172.703H483.438V173.797H482.023V178.648C482.023 179.049 482.047 179.307 482.094 179.422C482.146 179.536 482.227 179.628 482.336 179.695C482.451 179.763 482.612 179.797 482.82 179.797C482.977 179.797 483.182 179.779 483.438 179.742ZM484.258 178.523L485.648 178.305C485.727 178.862 485.943 179.289 486.297 179.586C486.656 179.883 487.156 180.031 487.797 180.031C488.443 180.031 488.922 179.901 489.234 179.641C489.547 179.375 489.703 179.065 489.703 178.711C489.703 178.393 489.565 178.143 489.289 177.961C489.096 177.836 488.617 177.677 487.852 177.484C486.82 177.224 486.104 177 485.703 176.812C485.307 176.62 485.005 176.357 484.797 176.023C484.594 175.685 484.492 175.312 484.492 174.906C484.492 174.536 484.576 174.195 484.742 173.883C484.914 173.565 485.146 173.302 485.438 173.094C485.656 172.932 485.953 172.797 486.328 172.688C486.708 172.573 487.115 172.516 487.547 172.516C488.198 172.516 488.768 172.609 489.258 172.797C489.753 172.984 490.117 173.24 490.352 173.562C490.586 173.88 490.747 174.307 490.836 174.844L489.461 175.031C489.398 174.604 489.216 174.271 488.914 174.031C488.617 173.792 488.195 173.672 487.648 173.672C487.003 173.672 486.542 173.779 486.266 173.992C485.99 174.206 485.852 174.456 485.852 174.742C485.852 174.924 485.909 175.089 486.023 175.234C486.138 175.385 486.318 175.51 486.562 175.609C486.703 175.661 487.117 175.781 487.805 175.969C488.799 176.234 489.492 176.453 489.883 176.625C490.279 176.792 490.589 177.036 490.812 177.359C491.036 177.682 491.148 178.083 491.148 178.562C491.148 179.031 491.01 179.474 490.734 179.891C490.464 180.302 490.07 180.622 489.555 180.852C489.039 181.076 488.456 181.188 487.805 181.188C486.727 181.188 485.904 180.964 485.336 180.516C484.773 180.068 484.414 179.404 484.258 178.523ZM496.75 176.852C496.75 175.315 497.177 174.177 498.031 173.438C498.745 172.823 499.615 172.516 500.641 172.516C501.781 172.516 502.714 172.891 503.438 173.641C504.161 174.385 504.523 175.417 504.523 176.734C504.523 177.802 504.362 178.643 504.039 179.258C503.721 179.867 503.255 180.341 502.641 180.68C502.031 181.018 501.365 181.188 500.641 181.188C499.479 181.188 498.539 180.815 497.82 180.07C497.107 179.326 496.75 178.253 496.75 176.852ZM498.195 176.852C498.195 177.914 498.427 178.711 498.891 179.242C499.354 179.768 499.938 180.031 500.641 180.031C501.339 180.031 501.919 179.766 502.383 179.234C502.846 178.703 503.078 177.893 503.078 176.805C503.078 175.779 502.844 175.003 502.375 174.477C501.911 173.945 501.333 173.68 500.641 173.68C499.938 173.68 499.354 173.943 498.891 174.469C498.427 174.995 498.195 175.789 498.195 176.852ZM506.516 181V173.797H505.273V172.703H506.516V171.82C506.516 171.263 506.565 170.849 506.664 170.578C506.799 170.214 507.036 169.919 507.375 169.695C507.719 169.466 508.198 169.352 508.812 169.352C509.208 169.352 509.646 169.398 510.125 169.492L509.914 170.719C509.622 170.667 509.346 170.641 509.086 170.641C508.659 170.641 508.357 170.732 508.18 170.914C508.003 171.096 507.914 171.438 507.914 171.938V172.703H509.531V173.797H507.914V181H506.516ZM523.438 176.984L524.953 177.367C524.635 178.612 524.062 179.562 523.234 180.219C522.411 180.87 521.404 181.195 520.211 181.195C518.977 181.195 517.971 180.945 517.195 180.445C516.424 179.94 515.836 179.211 515.43 178.258C515.029 177.305 514.828 176.281 514.828 175.188C514.828 173.995 515.055 172.956 515.508 172.07C515.966 171.18 516.615 170.505 517.453 170.047C518.297 169.583 519.224 169.352 520.234 169.352C521.38 169.352 522.344 169.643 523.125 170.227C523.906 170.81 524.451 171.63 524.758 172.688L523.266 173.039C523 172.206 522.615 171.599 522.109 171.219C521.604 170.839 520.969 170.648 520.203 170.648C519.323 170.648 518.586 170.859 517.992 171.281C517.404 171.703 516.99 172.271 516.75 172.984C516.51 173.693 516.391 174.424 516.391 175.18C516.391 176.154 516.531 177.005 516.812 177.734C517.099 178.458 517.542 179 518.141 179.359C518.74 179.719 519.388 179.898 520.086 179.898C520.935 179.898 521.654 179.654 522.242 179.164C522.831 178.674 523.229 177.948 523.438 176.984ZM532.086 181V179.781C531.44 180.719 530.562 181.188 529.453 181.188C528.964 181.188 528.505 181.094 528.078 180.906C527.656 180.719 527.341 180.484 527.133 180.203C526.93 179.917 526.786 179.568 526.703 179.156C526.646 178.88 526.617 178.443 526.617 177.844V172.703H528.023V177.305C528.023 178.039 528.052 178.534 528.109 178.789C528.198 179.159 528.385 179.451 528.672 179.664C528.958 179.872 529.312 179.977 529.734 179.977C530.156 179.977 530.552 179.87 530.922 179.656C531.292 179.438 531.552 179.143 531.703 178.773C531.859 178.398 531.938 177.857 531.938 177.148V172.703H533.344V181H532.086ZM535.539 181V172.703H536.805V173.961C537.128 173.372 537.424 172.984 537.695 172.797C537.971 172.609 538.273 172.516 538.602 172.516C539.076 172.516 539.557 172.667 540.047 172.969L539.562 174.273C539.219 174.07 538.875 173.969 538.531 173.969C538.224 173.969 537.948 174.062 537.703 174.25C537.458 174.432 537.284 174.688 537.18 175.016C537.023 175.516 536.945 176.062 536.945 176.656V181H535.539ZM543.188 181L540.031 172.703H541.516L543.297 177.672C543.49 178.208 543.667 178.766 543.828 179.344C543.953 178.906 544.128 178.38 544.352 177.766L546.195 172.703H547.641L544.5 181H543.188ZM554.562 178.328L556.016 178.508C555.786 179.357 555.362 180.016 554.742 180.484C554.122 180.953 553.331 181.188 552.367 181.188C551.154 181.188 550.19 180.815 549.477 180.07C548.768 179.32 548.414 178.271 548.414 176.922C548.414 175.526 548.773 174.443 549.492 173.672C550.211 172.901 551.143 172.516 552.289 172.516C553.398 172.516 554.305 172.893 555.008 173.648C555.711 174.404 556.062 175.466 556.062 176.836C556.062 176.919 556.06 177.044 556.055 177.211H549.867C549.919 178.122 550.177 178.82 550.641 179.305C551.104 179.789 551.682 180.031 552.375 180.031C552.891 180.031 553.331 179.896 553.695 179.625C554.06 179.354 554.349 178.922 554.562 178.328ZM549.945 176.055H554.578C554.516 175.357 554.339 174.833 554.047 174.484C553.599 173.943 553.018 173.672 552.305 173.672C551.659 173.672 551.115 173.888 550.672 174.32C550.234 174.753 549.992 175.331 549.945 176.055Z" fill="#4D6CEB"/>
<path d="M401.25 15V3.54688H405.547C406.422 3.54688 407.122 3.66406 407.648 3.89844C408.18 4.1276 408.594 4.48438 408.891 4.96875C409.193 5.44792 409.344 5.95052 409.344 6.47656C409.344 6.96615 409.211 7.42708 408.945 7.85938C408.68 8.29167 408.279 8.64062 407.742 8.90625C408.435 9.10938 408.966 9.45573 409.336 9.94531C409.711 10.4349 409.898 11.013 409.898 11.6797C409.898 12.2161 409.784 12.7161 409.555 13.1797C409.331 13.638 409.052 13.9922 408.719 14.2422C408.385 14.4922 407.966 14.6823 407.461 14.8125C406.961 14.9375 406.346 15 405.617 15H401.25ZM402.766 8.35938H405.242C405.914 8.35938 406.396 8.3151 406.688 8.22656C407.073 8.11198 407.362 7.92188 407.555 7.65625C407.753 7.39062 407.852 7.05729 407.852 6.65625C407.852 6.27604 407.76 5.94271 407.578 5.65625C407.396 5.36458 407.135 5.16667 406.797 5.0625C406.458 4.95312 405.878 4.89844 405.055 4.89844H402.766V8.35938ZM402.766 13.6484H405.617C406.107 13.6484 406.451 13.6302 406.648 13.5938C406.997 13.5312 407.289 13.4271 407.523 13.2812C407.758 13.1354 407.951 12.9245 408.102 12.6484C408.253 12.3672 408.328 12.0443 408.328 11.6797C408.328 11.2526 408.219 10.8828 408 10.5703C407.781 10.2526 407.477 10.0312 407.086 9.90625C406.701 9.77604 406.143 9.71094 405.414 9.71094H402.766V13.6484ZM417.484 12.3281L418.938 12.5078C418.708 13.3568 418.284 14.0156 417.664 14.4844C417.044 14.9531 416.253 15.1875 415.289 15.1875C414.076 15.1875 413.112 14.8151 412.398 14.0703C411.69 13.3203 411.336 12.2708 411.336 10.9219C411.336 9.52604 411.695 8.44271 412.414 7.67188C413.133 6.90104 414.065 6.51562 415.211 6.51562C416.32 6.51562 417.227 6.89323 417.93 7.64844C418.633 8.40365 418.984 9.46615 418.984 10.8359C418.984 10.9193 418.982 11.0443 418.977 11.2109H412.789C412.841 12.1224 413.099 12.8203 413.562 13.3047C414.026 13.7891 414.604 14.0312 415.297 14.0312C415.812 14.0312 416.253 13.8958 416.617 13.625C416.982 13.3542 417.271 12.9219 417.484 12.3281ZM412.867 10.0547H417.5C417.438 9.35677 417.26 8.83333 416.969 8.48438C416.521 7.94271 415.94 7.67188 415.227 7.67188C414.581 7.67188 414.036 7.88802 413.594 8.32031C413.156 8.7526 412.914 9.33073 412.867 10.0547ZM419.969 15V13.8594L425.25 7.79688C424.651 7.82812 424.122 7.84375 423.664 7.84375H420.281V6.70312H427.062V7.63281L422.57 12.8984L421.703 13.8594C422.333 13.8125 422.924 13.7891 423.477 13.7891H427.312V15H419.969ZM428.719 5.16406V3.54688H430.125V5.16406H428.719ZM428.719 15V6.70312H430.125V15H428.719ZM437.953 12.3281L439.406 12.5078C439.177 13.3568 438.753 14.0156 438.133 14.4844C437.513 14.9531 436.721 15.1875 435.758 15.1875C434.544 15.1875 433.581 14.8151 432.867 14.0703C432.159 13.3203 431.805 12.2708 431.805 10.9219C431.805 9.52604 432.164 8.44271 432.883 7.67188C433.602 6.90104 434.534 6.51562 435.68 6.51562C436.789 6.51562 437.695 6.89323 438.398 7.64844C439.102 8.40365 439.453 9.46615 439.453 10.8359C439.453 10.9193 439.451 11.0443 439.445 11.2109H433.258C433.31 12.1224 433.568 12.8203 434.031 13.3047C434.495 13.7891 435.073 14.0312 435.766 14.0312C436.281 14.0312 436.721 13.8958 437.086 13.625C437.451 13.3542 437.74 12.9219 437.953 12.3281ZM433.336 10.0547H437.969C437.906 9.35677 437.729 8.83333 437.438 8.48438C436.99 7.94271 436.409 7.67188 435.695 7.67188C435.049 7.67188 434.505 7.88802 434.062 8.32031C433.625 8.7526 433.383 9.33073 433.336 10.0547ZM441.164 15V6.70312H442.43V7.96094C442.753 7.3724 443.049 6.98438 443.32 6.79688C443.596 6.60938 443.898 6.51562 444.227 6.51562C444.701 6.51562 445.182 6.66667 445.672 6.96875L445.188 8.27344C444.844 8.07031 444.5 7.96875 444.156 7.96875C443.849 7.96875 443.573 8.0625 443.328 8.25C443.083 8.43229 442.909 8.6875 442.805 9.01562C442.648 9.51562 442.57 10.0625 442.57 10.6562V15H441.164ZM451.297 15V7.79688H450.055V6.70312H451.297V5.82031C451.297 5.26302 451.346 4.84896 451.445 4.57812C451.581 4.21354 451.818 3.91927 452.156 3.69531C452.5 3.46615 452.979 3.35156 453.594 3.35156C453.99 3.35156 454.427 3.39844 454.906 3.49219L454.695 4.71875C454.404 4.66667 454.128 4.64062 453.867 4.64062C453.44 4.64062 453.138 4.73177 452.961 4.91406C452.784 5.09635 452.695 5.4375 452.695 5.9375V6.70312H454.312V7.79688H452.695V15H451.297ZM454.891 10.8516C454.891 9.3151 455.318 8.17708 456.172 7.4375C456.885 6.82292 457.755 6.51562 458.781 6.51562C459.922 6.51562 460.854 6.89062 461.578 7.64062C462.302 8.38542 462.664 9.41667 462.664 10.7344C462.664 11.8021 462.503 12.6432 462.18 13.2578C461.862 13.8672 461.396 14.3411 460.781 14.6797C460.172 15.0182 459.505 15.1875 458.781 15.1875C457.62 15.1875 456.68 14.8151 455.961 14.0703C455.247 13.3255 454.891 12.2526 454.891 10.8516ZM456.336 10.8516C456.336 11.9141 456.568 12.7109 457.031 13.2422C457.495 13.7682 458.078 14.0312 458.781 14.0312C459.479 14.0312 460.06 13.7656 460.523 13.2344C460.987 12.7031 461.219 11.8932 461.219 10.8047C461.219 9.77865 460.984 9.0026 460.516 8.47656C460.052 7.94531 459.474 7.67969 458.781 7.67969C458.078 7.67969 457.495 7.94271 457.031 8.46875C456.568 8.99479 456.336 9.78906 456.336 10.8516ZM469.734 11.9609L471.117 12.1406C470.966 13.0938 470.578 13.8411 469.953 14.3828C469.333 14.9193 468.57 15.1875 467.664 15.1875C466.529 15.1875 465.615 14.8177 464.922 14.0781C464.234 13.3333 463.891 12.2682 463.891 10.8828C463.891 9.98698 464.039 9.20312 464.336 8.53125C464.633 7.85938 465.083 7.35677 465.688 7.02344C466.297 6.6849 466.958 6.51562 467.672 6.51562C468.573 6.51562 469.31 6.74479 469.883 7.20312C470.456 7.65625 470.823 8.30208 470.984 9.14062L469.617 9.35156C469.487 8.79427 469.255 8.375 468.922 8.09375C468.594 7.8125 468.195 7.67188 467.727 7.67188C467.018 7.67188 466.443 7.92708 466 8.4375C465.557 8.94271 465.336 9.74479 465.336 10.8438C465.336 11.9583 465.549 12.7682 465.977 13.2734C466.404 13.7786 466.961 14.0312 467.648 14.0312C468.201 14.0312 468.661 13.862 469.031 13.5234C469.401 13.1849 469.635 12.6641 469.734 11.9609ZM477.734 13.9766C477.214 14.4193 476.711 14.7318 476.227 14.9141C475.747 15.0964 475.232 15.1875 474.68 15.1875C473.768 15.1875 473.068 14.9661 472.578 14.5234C472.089 14.0755 471.844 13.5052 471.844 12.8125C471.844 12.4062 471.935 12.0365 472.117 11.7031C472.305 11.3646 472.547 11.0938 472.844 10.8906C473.146 10.6875 473.484 10.5339 473.859 10.4297C474.135 10.3568 474.552 10.2865 475.109 10.2188C476.245 10.0833 477.081 9.92188 477.617 9.73438C477.622 9.54167 477.625 9.41927 477.625 9.36719C477.625 8.79427 477.492 8.39062 477.227 8.15625C476.867 7.83854 476.333 7.67969 475.625 7.67969C474.964 7.67969 474.474 7.79688 474.156 8.03125C473.844 8.26042 473.612 8.66927 473.461 9.25781L472.086 9.07031C472.211 8.48177 472.417 8.00781 472.703 7.64844C472.99 7.28385 473.404 7.00521 473.945 6.8125C474.487 6.61458 475.115 6.51562 475.828 6.51562C476.536 6.51562 477.112 6.59896 477.555 6.76562C477.997 6.93229 478.323 7.14323 478.531 7.39844C478.74 7.64844 478.885 7.96615 478.969 8.35156C479.016 8.59115 479.039 9.02344 479.039 9.64844V11.5234C479.039 12.8307 479.068 13.6589 479.125 14.0078C479.188 14.3516 479.307 14.6823 479.484 15H478.016C477.87 14.7083 477.776 14.3672 477.734 13.9766ZM477.617 10.8359C477.107 11.0443 476.341 11.2214 475.32 11.3672C474.742 11.4505 474.333 11.5443 474.094 11.6484C473.854 11.7526 473.669 11.9062 473.539 12.1094C473.409 12.3073 473.344 12.5286 473.344 12.7734C473.344 13.1484 473.484 13.4609 473.766 13.7109C474.052 13.9609 474.469 14.0859 475.016 14.0859C475.557 14.0859 476.039 13.9688 476.461 13.7344C476.883 13.4948 477.193 13.1693 477.391 12.7578C477.542 12.4401 477.617 11.9714 477.617 11.3516V10.8359ZM481.195 15V3.54688H482.602V15H481.195ZM489.242 18.1797V6.70312H490.523V7.78125C490.826 7.35938 491.167 7.04427 491.547 6.83594C491.927 6.6224 492.388 6.51562 492.93 6.51562C493.638 6.51562 494.263 6.69792 494.805 7.0625C495.346 7.42708 495.755 7.94271 496.031 8.60938C496.307 9.27083 496.445 9.9974 496.445 10.7891C496.445 11.638 496.292 12.4036 495.984 13.0859C495.682 13.763 495.24 14.2839 494.656 14.6484C494.078 15.0078 493.469 15.1875 492.828 15.1875C492.359 15.1875 491.938 15.0885 491.562 14.8906C491.193 14.6927 490.888 14.4427 490.648 14.1406V18.1797H489.242ZM490.516 10.8984C490.516 11.9661 490.732 12.7552 491.164 13.2656C491.596 13.776 492.12 14.0312 492.734 14.0312C493.359 14.0312 493.893 13.7682 494.336 13.2422C494.784 12.7109 495.008 11.8906 495.008 10.7812C495.008 9.72396 494.789 8.93229 494.352 8.40625C493.919 7.88021 493.401 7.61719 492.797 7.61719C492.198 7.61719 491.667 7.89844 491.203 8.46094C490.745 9.01823 490.516 9.83073 490.516 10.8984ZM497.625 10.8516C497.625 9.3151 498.052 8.17708 498.906 7.4375C499.62 6.82292 500.49 6.51562 501.516 6.51562C502.656 6.51562 503.589 6.89062 504.312 7.64062C505.036 8.38542 505.398 9.41667 505.398 10.7344C505.398 11.8021 505.237 12.6432 504.914 13.2578C504.596 13.8672 504.13 14.3411 503.516 14.6797C502.906 15.0182 502.24 15.1875 501.516 15.1875C500.354 15.1875 499.414 14.8151 498.695 14.0703C497.982 13.3255 497.625 12.2526 497.625 10.8516ZM499.07 10.8516C499.07 11.9141 499.302 12.7109 499.766 13.2422C500.229 13.7682 500.812 14.0312 501.516 14.0312C502.214 14.0312 502.794 13.7656 503.258 13.2344C503.721 12.7031 503.953 11.8932 503.953 10.8047C503.953 9.77865 503.719 9.0026 503.25 8.47656C502.786 7.94531 502.208 7.67969 501.516 7.67969C500.812 7.67969 500.229 7.94271 499.766 8.46875C499.302 8.99479 499.07 9.78906 499.07 10.8516ZM507.062 5.16406V3.54688H508.469V5.16406H507.062ZM507.062 15V6.70312H508.469V15H507.062ZM510.617 15V6.70312H511.883V7.88281C512.492 6.97135 513.372 6.51562 514.523 6.51562C515.023 6.51562 515.482 6.60677 515.898 6.78906C516.32 6.96615 516.635 7.20052 516.844 7.49219C517.052 7.78385 517.198 8.13021 517.281 8.53125C517.333 8.79167 517.359 9.2474 517.359 9.89844V15H515.953V9.95312C515.953 9.38021 515.898 8.95312 515.789 8.67188C515.68 8.38542 515.484 8.15885 515.203 7.99219C514.927 7.82031 514.602 7.73438 514.227 7.73438C513.628 7.73438 513.109 7.92448 512.672 8.30469C512.24 8.6849 512.023 9.40625 512.023 10.4688V15H510.617ZM522.594 13.7422L522.797 14.9844C522.401 15.0677 522.047 15.1094 521.734 15.1094C521.224 15.1094 520.828 15.0286 520.547 14.8672C520.266 14.7057 520.068 14.4948 519.953 14.2344C519.839 13.9688 519.781 13.4141 519.781 12.5703V7.79688H518.75V6.70312H519.781V4.64844L521.18 3.80469V6.70312H522.594V7.79688H521.18V12.6484C521.18 13.0495 521.203 13.3073 521.25 13.4219C521.302 13.5365 521.383 13.6276 521.492 13.6953C521.607 13.763 521.768 13.7969 521.977 13.7969C522.133 13.7969 522.339 13.7786 522.594 13.7422ZM523.414 12.5234L524.805 12.3047C524.883 12.862 525.099 13.2891 525.453 13.5859C525.812 13.8828 526.312 14.0312 526.953 14.0312C527.599 14.0312 528.078 13.901 528.391 13.6406C528.703 13.375 528.859 13.0651 528.859 12.7109C528.859 12.3932 528.721 12.1432 528.445 11.9609C528.253 11.8359 527.773 11.6771 527.008 11.4844C525.977 11.224 525.26 11 524.859 10.8125C524.464 10.6198 524.161 10.3568 523.953 10.0234C523.75 9.6849 523.648 9.3125 523.648 8.90625C523.648 8.53646 523.732 8.19531 523.898 7.88281C524.07 7.5651 524.302 7.30208 524.594 7.09375C524.812 6.93229 525.109 6.79688 525.484 6.6875C525.865 6.57292 526.271 6.51562 526.703 6.51562C527.354 6.51562 527.924 6.60938 528.414 6.79688C528.909 6.98438 529.273 7.23958 529.508 7.5625C529.742 7.88021 529.904 8.30729 529.992 8.84375L528.617 9.03125C528.555 8.60417 528.372 8.27083 528.07 8.03125C527.773 7.79167 527.352 7.67188 526.805 7.67188C526.159 7.67188 525.698 7.77865 525.422 7.99219C525.146 8.20573 525.008 8.45573 525.008 8.74219C525.008 8.92448 525.065 9.08854 525.18 9.23438C525.294 9.38542 525.474 9.51042 525.719 9.60938C525.859 9.66146 526.273 9.78125 526.961 9.96875C527.956 10.2344 528.648 10.4531 529.039 10.625C529.435 10.7917 529.745 11.0365 529.969 11.3594C530.193 11.6823 530.305 12.0833 530.305 12.5625C530.305 13.0312 530.167 13.474 529.891 13.8906C529.62 14.3021 529.227 14.6224 528.711 14.8516C528.195 15.0755 527.612 15.1875 526.961 15.1875C525.883 15.1875 525.06 14.9635 524.492 14.5156C523.93 14.0677 523.57 13.4036 523.414 12.5234Z" fill="#A020A2"/>
</svg>
