<svg width="1012" height="396" viewBox="0 0 1012 396" fill="none" xmlns="http://www.w3.org/2000/svg">
<circle cx="198" cy="11" r="5" fill="#888888"/>
<circle cx="198" cy="11" r="8" stroke="#888888" stroke-opacity="0.35" stroke-width="6"/>
<circle cx="386" cy="199" r="5" fill="#888888"/>
<circle cx="386" cy="199" r="8" stroke="#888888" stroke-opacity="0.35" stroke-width="6"/>
<circle cx="198" cy="384" r="5" fill="#888888"/>
<circle cx="198" cy="384" r="8" stroke="#888888" stroke-opacity="0.35" stroke-width="6"/>
<circle cx="11" cy="199" r="5" fill="#888888"/>
<circle cx="11" cy="199" r="8" stroke="#888888" stroke-opacity="0.35" stroke-width="6"/>
<path d="M32.4766 176V164.547H36.7734C37.6484 164.547 38.349 164.664 38.875 164.898C39.4062 165.128 39.8203 165.484 40.1172 165.969C40.4193 166.448 40.5703 166.951 40.5703 167.477C40.5703 167.966 40.4375 168.427 40.1719 168.859C39.9062 169.292 39.5052 169.641 38.9688 169.906C39.6615 170.109 40.1927 170.456 40.5625 170.945C40.9375 171.435 41.125 172.013 41.125 172.68C41.125 173.216 41.0104 173.716 40.7812 174.18C40.5573 174.638 40.2786 174.992 39.9453 175.242C39.612 175.492 39.1927 175.682 38.6875 175.812C38.1875 175.938 37.5729 176 36.8438 176H32.4766ZM33.9922 169.359H36.4688C37.1406 169.359 37.6224 169.315 37.9141 169.227C38.2995 169.112 38.5885 168.922 38.7812 168.656C38.9792 168.391 39.0781 168.057 39.0781 167.656C39.0781 167.276 38.987 166.943 38.8047 166.656C38.6224 166.365 38.362 166.167 38.0234 166.062C37.6849 165.953 37.1042 165.898 36.2812 165.898H33.9922V169.359ZM33.9922 174.648H36.8438C37.3333 174.648 37.6771 174.63 37.875 174.594C38.224 174.531 38.5156 174.427 38.75 174.281C38.9844 174.135 39.1771 173.924 39.3281 173.648C39.4792 173.367 39.5547 173.044 39.5547 172.68C39.5547 172.253 39.4453 171.883 39.2266 171.57C39.0078 171.253 38.7031 171.031 38.3125 170.906C37.9271 170.776 37.3698 170.711 36.6406 170.711H33.9922V174.648ZM43 176V164.547H44.4062V176H43ZM46.0703 171.852C46.0703 170.315 46.4974 169.177 47.3516 168.438C48.0651 167.823 48.9349 167.516 49.9609 167.516C51.1016 167.516 52.0339 167.891 52.7578 168.641C53.4818 169.385 53.8438 170.417 53.8438 171.734C53.8438 172.802 53.6823 173.643 53.3594 174.258C53.0417 174.867 52.5755 175.341 51.9609 175.68C51.3516 176.018 50.6849 176.188 49.9609 176.188C48.7995 176.188 47.8594 175.815 47.1406 175.07C46.4271 174.326 46.0703 173.253 46.0703 171.852ZM47.5156 171.852C47.5156 172.914 47.7474 173.711 48.2109 174.242C48.6745 174.768 49.2578 175.031 49.9609 175.031C50.6589 175.031 51.2396 174.766 51.7031 174.234C52.1667 173.703 52.3984 172.893 52.3984 171.805C52.3984 170.779 52.1641 170.003 51.6953 169.477C51.2318 168.945 50.6536 168.68 49.9609 168.68C49.2578 168.68 48.6745 168.943 48.2109 169.469C47.7474 169.995 47.5156 170.789 47.5156 171.852ZM56.7969 176H55.4922V164.547H56.8984V168.633C57.4922 167.888 58.25 167.516 59.1719 167.516C59.6823 167.516 60.1641 167.62 60.6172 167.828C61.0755 168.031 61.4505 168.32 61.7422 168.695C62.0391 169.065 62.2708 169.513 62.4375 170.039C62.6042 170.565 62.6875 171.128 62.6875 171.727C62.6875 173.148 62.3359 174.247 61.6328 175.023C60.9297 175.799 60.0859 176.188 59.1016 176.188C58.1224 176.188 57.3542 175.779 56.7969 174.961V176ZM56.7812 171.789C56.7812 172.784 56.9167 173.503 57.1875 173.945C57.6302 174.669 58.2292 175.031 58.9844 175.031C59.599 175.031 60.1302 174.766 60.5781 174.234C61.026 173.698 61.25 172.901 61.25 171.844C61.25 170.76 61.0339 169.961 60.6016 169.445C60.1745 168.93 59.6562 168.672 59.0469 168.672C58.4323 168.672 57.901 168.94 57.4531 169.477C57.0052 170.008 56.7812 170.779 56.7812 171.789ZM77.2109 171.984L78.7266 172.367C78.4089 173.612 77.8359 174.562 77.0078 175.219C76.1849 175.87 75.1771 176.195 73.9844 176.195C72.75 176.195 71.7448 175.945 70.9688 175.445C70.1979 174.94 69.6094 174.211 69.2031 173.258C68.8021 172.305 68.6016 171.281 68.6016 170.188C68.6016 168.995 68.8281 167.956 69.2812 167.07C69.7396 166.18 70.388 165.505 71.2266 165.047C72.0703 164.583 72.9974 164.352 74.0078 164.352C75.1536 164.352 76.1172 164.643 76.8984 165.227C77.6797 165.81 78.224 166.63 78.5312 167.688L77.0391 168.039C76.7734 167.206 76.388 166.599 75.8828 166.219C75.3776 165.839 74.7422 165.648 73.9766 165.648C73.0964 165.648 72.3594 165.859 71.7656 166.281C71.1771 166.703 70.763 167.271 70.5234 167.984C70.2839 168.693 70.1641 169.424 70.1641 170.18C70.1641 171.154 70.3047 172.005 70.5859 172.734C70.8724 173.458 71.3151 174 71.9141 174.359C72.513 174.719 73.1615 174.898 73.8594 174.898C74.7083 174.898 75.4271 174.654 76.0156 174.164C76.6042 173.674 77.0026 172.948 77.2109 171.984ZM79.8984 171.852C79.8984 170.315 80.3255 169.177 81.1797 168.438C81.8932 167.823 82.763 167.516 83.7891 167.516C84.9297 167.516 85.862 167.891 86.5859 168.641C87.3099 169.385 87.6719 170.417 87.6719 171.734C87.6719 172.802 87.5104 173.643 87.1875 174.258C86.8698 174.867 86.4036 175.341 85.7891 175.68C85.1797 176.018 84.513 176.188 83.7891 176.188C82.6276 176.188 81.6875 175.815 80.9688 175.07C80.2552 174.326 79.8984 173.253 79.8984 171.852ZM81.3438 171.852C81.3438 172.914 81.5755 173.711 82.0391 174.242C82.5026 174.768 83.0859 175.031 83.7891 175.031C84.487 175.031 85.0677 174.766 85.5312 174.234C85.9948 173.703 86.2266 172.893 86.2266 171.805C86.2266 170.779 85.9922 170.003 85.5234 169.477C85.0599 168.945 84.4818 168.68 83.7891 168.68C83.0859 168.68 82.5026 168.943 82.0391 169.469C81.5755 169.995 81.3438 170.789 81.3438 171.852ZM89.3281 176V167.703H90.5938V168.883C91.2031 167.971 92.0833 167.516 93.2344 167.516C93.7344 167.516 94.1927 167.607 94.6094 167.789C95.0312 167.966 95.3464 168.201 95.5547 168.492C95.763 168.784 95.9089 169.13 95.9922 169.531C96.0443 169.792 96.0703 170.247 96.0703 170.898V176H94.6641V170.953C94.6641 170.38 94.6094 169.953 94.5 169.672C94.3906 169.385 94.1953 169.159 93.9141 168.992C93.638 168.82 93.3125 168.734 92.9375 168.734C92.3385 168.734 91.8203 168.924 91.3828 169.305C90.9505 169.685 90.7344 170.406 90.7344 171.469V176H89.3281ZM101.305 174.742L101.508 175.984C101.112 176.068 100.758 176.109 100.445 176.109C99.9349 176.109 99.5391 176.029 99.2578 175.867C98.9766 175.706 98.7786 175.495 98.6641 175.234C98.5495 174.969 98.4922 174.414 98.4922 173.57V168.797H97.4609V167.703H98.4922V165.648L99.8906 164.805V167.703H101.305V168.797H99.8906V173.648C99.8906 174.049 99.9141 174.307 99.9609 174.422C100.013 174.536 100.094 174.628 100.203 174.695C100.318 174.763 100.479 174.797 100.688 174.797C100.844 174.797 101.049 174.779 101.305 174.742ZM102.672 176V167.703H103.938V168.961C104.26 168.372 104.557 167.984 104.828 167.797C105.104 167.609 105.406 167.516 105.734 167.516C106.208 167.516 106.69 167.667 107.18 167.969L106.695 169.273C106.352 169.07 106.008 168.969 105.664 168.969C105.357 168.969 105.081 169.062 104.836 169.25C104.591 169.432 104.417 169.688 104.312 170.016C104.156 170.516 104.078 171.062 104.078 171.656V176H102.672ZM113.43 174.977C112.909 175.419 112.406 175.732 111.922 175.914C111.443 176.096 110.927 176.188 110.375 176.188C109.464 176.188 108.763 175.966 108.273 175.523C107.784 175.076 107.539 174.505 107.539 173.812C107.539 173.406 107.63 173.036 107.812 172.703C108 172.365 108.242 172.094 108.539 171.891C108.841 171.688 109.18 171.534 109.555 171.43C109.831 171.357 110.247 171.286 110.805 171.219C111.94 171.083 112.776 170.922 113.312 170.734C113.318 170.542 113.32 170.419 113.32 170.367C113.32 169.794 113.188 169.391 112.922 169.156C112.562 168.839 112.029 168.68 111.32 168.68C110.659 168.68 110.169 168.797 109.852 169.031C109.539 169.26 109.307 169.669 109.156 170.258L107.781 170.07C107.906 169.482 108.112 169.008 108.398 168.648C108.685 168.284 109.099 168.005 109.641 167.812C110.182 167.615 110.81 167.516 111.523 167.516C112.232 167.516 112.807 167.599 113.25 167.766C113.693 167.932 114.018 168.143 114.227 168.398C114.435 168.648 114.581 168.966 114.664 169.352C114.711 169.591 114.734 170.023 114.734 170.648V172.523C114.734 173.831 114.763 174.659 114.82 175.008C114.883 175.352 115.003 175.682 115.18 176H113.711C113.565 175.708 113.471 175.367 113.43 174.977ZM113.312 171.836C112.802 172.044 112.036 172.221 111.016 172.367C110.438 172.451 110.029 172.544 109.789 172.648C109.549 172.753 109.365 172.906 109.234 173.109C109.104 173.307 109.039 173.529 109.039 173.773C109.039 174.148 109.18 174.461 109.461 174.711C109.747 174.961 110.164 175.086 110.711 175.086C111.253 175.086 111.734 174.969 112.156 174.734C112.578 174.495 112.888 174.169 113.086 173.758C113.237 173.44 113.312 172.971 113.312 172.352V171.836ZM122.336 172.961L123.719 173.141C123.568 174.094 123.18 174.841 122.555 175.383C121.935 175.919 121.172 176.188 120.266 176.188C119.13 176.188 118.216 175.818 117.523 175.078C116.836 174.333 116.492 173.268 116.492 171.883C116.492 170.987 116.641 170.203 116.938 169.531C117.234 168.859 117.685 168.357 118.289 168.023C118.898 167.685 119.56 167.516 120.273 167.516C121.174 167.516 121.911 167.745 122.484 168.203C123.057 168.656 123.424 169.302 123.586 170.141L122.219 170.352C122.089 169.794 121.857 169.375 121.523 169.094C121.195 168.812 120.797 168.672 120.328 168.672C119.62 168.672 119.044 168.927 118.602 169.438C118.159 169.943 117.938 170.745 117.938 171.844C117.938 172.958 118.151 173.768 118.578 174.273C119.005 174.779 119.562 175.031 120.25 175.031C120.802 175.031 121.263 174.862 121.633 174.523C122.003 174.185 122.237 173.664 122.336 172.961ZM127.992 174.742L128.195 175.984C127.799 176.068 127.445 176.109 127.133 176.109C126.622 176.109 126.227 176.029 125.945 175.867C125.664 175.706 125.466 175.495 125.352 175.234C125.237 174.969 125.18 174.414 125.18 173.57V168.797H124.148V167.703H125.18V165.648L126.578 164.805V167.703H127.992V168.797H126.578V173.648C126.578 174.049 126.602 174.307 126.648 174.422C126.701 174.536 126.781 174.628 126.891 174.695C127.005 174.763 127.167 174.797 127.375 174.797C127.531 174.797 127.737 174.779 127.992 174.742ZM129.383 166.164V164.547H130.789V166.164H129.383ZM129.383 176V167.703H130.789V176H129.383ZM132.414 171.852C132.414 170.315 132.841 169.177 133.695 168.438C134.409 167.823 135.279 167.516 136.305 167.516C137.445 167.516 138.378 167.891 139.102 168.641C139.826 169.385 140.188 170.417 140.188 171.734C140.188 172.802 140.026 173.643 139.703 174.258C139.385 174.867 138.919 175.341 138.305 175.68C137.695 176.018 137.029 176.188 136.305 176.188C135.143 176.188 134.203 175.815 133.484 175.07C132.771 174.326 132.414 173.253 132.414 171.852ZM133.859 171.852C133.859 172.914 134.091 173.711 134.555 174.242C135.018 174.768 135.602 175.031 136.305 175.031C137.003 175.031 137.583 174.766 138.047 174.234C138.51 173.703 138.742 172.893 138.742 171.805C138.742 170.779 138.508 170.003 138.039 169.477C137.576 168.945 136.997 168.68 136.305 168.68C135.602 168.68 135.018 168.943 134.555 169.469C134.091 169.995 133.859 170.789 133.859 171.852ZM141.844 176V167.703H143.109V168.883C143.719 167.971 144.599 167.516 145.75 167.516C146.25 167.516 146.708 167.607 147.125 167.789C147.547 167.966 147.862 168.201 148.07 168.492C148.279 168.784 148.424 169.13 148.508 169.531C148.56 169.792 148.586 170.247 148.586 170.898V176H147.18V170.953C147.18 170.38 147.125 169.953 147.016 169.672C146.906 169.385 146.711 169.159 146.43 168.992C146.154 168.82 145.828 168.734 145.453 168.734C144.854 168.734 144.336 168.924 143.898 169.305C143.466 169.685 143.25 170.406 143.25 171.469V176H141.844Z" fill="#FF5252"/>
<circle cx="198" cy="198.5" r="187.25" stroke="black" stroke-width="0.5"/>
<line x1="11" y1="198" x2="81" y2="198" stroke="#FF5252" stroke-width="2" stroke-dasharray="4 4"/>
<circle cx="813" cy="12" r="5" fill="#888888"/>
<circle cx="813" cy="12" r="8" stroke="#888888" stroke-opacity="0.35" stroke-width="6"/>
<circle cx="813" cy="44" r="5" fill="#A020A2"/>
<circle cx="813" cy="44" r="8" stroke="#A020A2" stroke-opacity="0.35" stroke-width="6"/>
<circle cx="813" cy="317" r="5" fill="#A020A2"/>
<circle cx="813" cy="317" r="8" stroke="#A020A2" stroke-opacity="0.35" stroke-width="6"/>
<circle cx="1001" cy="200" r="5" fill="#A020A2"/>
<circle cx="1001" cy="200" r="8" stroke="#A020A2" stroke-opacity="0.35" stroke-width="6"/>
<circle cx="813" cy="385" r="5" fill="#888888"/>
<circle cx="813" cy="385" r="8" stroke="#888888" stroke-opacity="0.35" stroke-width="6"/>
<circle cx="626" cy="200" r="5" fill="#888888"/>
<circle cx="626" cy="200" r="8" stroke="#888888" stroke-opacity="0.35" stroke-width="6"/>
<circle cx="677" cy="200" r="5" fill="#A020A2"/>
<circle cx="677" cy="200" r="8" stroke="#A020A2" stroke-opacity="0.35" stroke-width="6"/>
<path d="M729.484 163.984L731 164.367C730.682 165.612 730.109 166.562 729.281 167.219C728.458 167.87 727.451 168.195 726.258 168.195C725.023 168.195 724.018 167.945 723.242 167.445C722.471 166.94 721.883 166.211 721.477 165.258C721.076 164.305 720.875 163.281 720.875 162.188C720.875 160.995 721.102 159.956 721.555 159.07C722.013 158.18 722.661 157.505 723.5 157.047C724.344 156.583 725.271 156.352 726.281 156.352C727.427 156.352 728.391 156.643 729.172 157.227C729.953 157.81 730.497 158.63 730.805 159.688L729.312 160.039C729.047 159.206 728.661 158.599 728.156 158.219C727.651 157.839 727.016 157.648 726.25 157.648C725.37 157.648 724.633 157.859 724.039 158.281C723.451 158.703 723.036 159.271 722.797 159.984C722.557 160.693 722.438 161.424 722.438 162.18C722.438 163.154 722.578 164.005 722.859 164.734C723.146 165.458 723.589 166 724.188 166.359C724.786 166.719 725.435 166.898 726.133 166.898C726.982 166.898 727.701 166.654 728.289 166.164C728.878 165.674 729.276 164.948 729.484 163.984ZM732.172 163.852C732.172 162.315 732.599 161.177 733.453 160.438C734.167 159.823 735.036 159.516 736.062 159.516C737.203 159.516 738.135 159.891 738.859 160.641C739.583 161.385 739.945 162.417 739.945 163.734C739.945 164.802 739.784 165.643 739.461 166.258C739.143 166.867 738.677 167.341 738.062 167.68C737.453 168.018 736.786 168.188 736.062 168.188C734.901 168.188 733.961 167.815 733.242 167.07C732.529 166.326 732.172 165.253 732.172 163.852ZM733.617 163.852C733.617 164.914 733.849 165.711 734.312 166.242C734.776 166.768 735.359 167.031 736.062 167.031C736.76 167.031 737.341 166.766 737.805 166.234C738.268 165.703 738.5 164.893 738.5 163.805C738.5 162.779 738.266 162.003 737.797 161.477C737.333 160.945 736.755 160.68 736.062 160.68C735.359 160.68 734.776 160.943 734.312 161.469C733.849 161.995 733.617 162.789 733.617 163.852ZM741.602 168V159.703H742.867V160.883C743.477 159.971 744.357 159.516 745.508 159.516C746.008 159.516 746.466 159.607 746.883 159.789C747.305 159.966 747.62 160.201 747.828 160.492C748.036 160.784 748.182 161.13 748.266 161.531C748.318 161.792 748.344 162.247 748.344 162.898V168H746.938V162.953C746.938 162.38 746.883 161.953 746.773 161.672C746.664 161.385 746.469 161.159 746.188 160.992C745.911 160.82 745.586 160.734 745.211 160.734C744.612 160.734 744.094 160.924 743.656 161.305C743.224 161.685 743.008 162.406 743.008 163.469V168H741.602ZM753.578 166.742L753.781 167.984C753.385 168.068 753.031 168.109 752.719 168.109C752.208 168.109 751.812 168.029 751.531 167.867C751.25 167.706 751.052 167.495 750.938 167.234C750.823 166.969 750.766 166.414 750.766 165.57V160.797H749.734V159.703H750.766V157.648L752.164 156.805V159.703H753.578V160.797H752.164V165.648C752.164 166.049 752.188 166.307 752.234 166.422C752.286 166.536 752.367 166.628 752.477 166.695C752.591 166.763 752.753 166.797 752.961 166.797C753.117 166.797 753.323 166.779 753.578 166.742ZM754.945 168V159.703H756.211V160.961C756.534 160.372 756.831 159.984 757.102 159.797C757.378 159.609 757.68 159.516 758.008 159.516C758.482 159.516 758.964 159.667 759.453 159.969L758.969 161.273C758.625 161.07 758.281 160.969 757.938 160.969C757.63 160.969 757.354 161.062 757.109 161.25C756.865 161.432 756.69 161.688 756.586 162.016C756.43 162.516 756.352 163.062 756.352 163.656V168H754.945ZM765.703 166.977C765.182 167.419 764.68 167.732 764.195 167.914C763.716 168.096 763.201 168.188 762.648 168.188C761.737 168.188 761.036 167.966 760.547 167.523C760.057 167.076 759.812 166.505 759.812 165.812C759.812 165.406 759.904 165.036 760.086 164.703C760.273 164.365 760.516 164.094 760.812 163.891C761.115 163.688 761.453 163.534 761.828 163.43C762.104 163.357 762.521 163.286 763.078 163.219C764.214 163.083 765.049 162.922 765.586 162.734C765.591 162.542 765.594 162.419 765.594 162.367C765.594 161.794 765.461 161.391 765.195 161.156C764.836 160.839 764.302 160.68 763.594 160.68C762.932 160.68 762.443 160.797 762.125 161.031C761.812 161.26 761.581 161.669 761.43 162.258L760.055 162.07C760.18 161.482 760.385 161.008 760.672 160.648C760.958 160.284 761.372 160.005 761.914 159.812C762.456 159.615 763.083 159.516 763.797 159.516C764.505 159.516 765.081 159.599 765.523 159.766C765.966 159.932 766.292 160.143 766.5 160.398C766.708 160.648 766.854 160.966 766.938 161.352C766.984 161.591 767.008 162.023 767.008 162.648V164.523C767.008 165.831 767.036 166.659 767.094 167.008C767.156 167.352 767.276 167.682 767.453 168H765.984C765.839 167.708 765.745 167.367 765.703 166.977ZM765.586 163.836C765.076 164.044 764.31 164.221 763.289 164.367C762.711 164.451 762.302 164.544 762.062 164.648C761.823 164.753 761.638 164.906 761.508 165.109C761.378 165.307 761.312 165.529 761.312 165.773C761.312 166.148 761.453 166.461 761.734 166.711C762.021 166.961 762.438 167.086 762.984 167.086C763.526 167.086 764.008 166.969 764.43 166.734C764.852 166.495 765.161 166.169 765.359 165.758C765.51 165.44 765.586 164.971 765.586 164.352V163.836ZM774.609 164.961L775.992 165.141C775.841 166.094 775.453 166.841 774.828 167.383C774.208 167.919 773.445 168.188 772.539 168.188C771.404 168.188 770.49 167.818 769.797 167.078C769.109 166.333 768.766 165.268 768.766 163.883C768.766 162.987 768.914 162.203 769.211 161.531C769.508 160.859 769.958 160.357 770.562 160.023C771.172 159.685 771.833 159.516 772.547 159.516C773.448 159.516 774.185 159.745 774.758 160.203C775.331 160.656 775.698 161.302 775.859 162.141L774.492 162.352C774.362 161.794 774.13 161.375 773.797 161.094C773.469 160.812 773.07 160.672 772.602 160.672C771.893 160.672 771.318 160.927 770.875 161.438C770.432 161.943 770.211 162.745 770.211 163.844C770.211 164.958 770.424 165.768 770.852 166.273C771.279 166.779 771.836 167.031 772.523 167.031C773.076 167.031 773.536 166.862 773.906 166.523C774.276 166.185 774.51 165.664 774.609 164.961ZM780.266 166.742L780.469 167.984C780.073 168.068 779.719 168.109 779.406 168.109C778.896 168.109 778.5 168.029 778.219 167.867C777.938 167.706 777.74 167.495 777.625 167.234C777.51 166.969 777.453 166.414 777.453 165.57V160.797H776.422V159.703H777.453V157.648L778.852 156.805V159.703H780.266V160.797H778.852V165.648C778.852 166.049 778.875 166.307 778.922 166.422C778.974 166.536 779.055 166.628 779.164 166.695C779.279 166.763 779.44 166.797 779.648 166.797C779.805 166.797 780.01 166.779 780.266 166.742ZM781.656 158.164V156.547H783.062V158.164H781.656ZM781.656 168V159.703H783.062V168H781.656ZM784.688 163.852C784.688 162.315 785.115 161.177 785.969 160.438C786.682 159.823 787.552 159.516 788.578 159.516C789.719 159.516 790.651 159.891 791.375 160.641C792.099 161.385 792.461 162.417 792.461 163.734C792.461 164.802 792.299 165.643 791.977 166.258C791.659 166.867 791.193 167.341 790.578 167.68C789.969 168.018 789.302 168.188 788.578 168.188C787.417 168.188 786.477 167.815 785.758 167.07C785.044 166.326 784.688 165.253 784.688 163.852ZM786.133 163.852C786.133 164.914 786.365 165.711 786.828 166.242C787.292 166.768 787.875 167.031 788.578 167.031C789.276 167.031 789.857 166.766 790.32 166.234C790.784 165.703 791.016 164.893 791.016 163.805C791.016 162.779 790.781 162.003 790.312 161.477C789.849 160.945 789.271 160.68 788.578 160.68C787.875 160.68 787.292 160.943 786.828 161.469C786.365 161.995 786.133 162.789 786.133 163.852ZM794.117 168V159.703H795.383V160.883C795.992 159.971 796.872 159.516 798.023 159.516C798.523 159.516 798.982 159.607 799.398 159.789C799.82 159.966 800.135 160.201 800.344 160.492C800.552 160.784 800.698 161.13 800.781 161.531C800.833 161.792 800.859 162.247 800.859 162.898V168H799.453V162.953C799.453 162.38 799.398 161.953 799.289 161.672C799.18 161.385 798.984 161.159 798.703 160.992C798.427 160.82 798.102 160.734 797.727 160.734C797.128 160.734 796.609 160.924 796.172 161.305C795.74 161.685 795.523 162.406 795.523 163.469V168H794.117ZM806.742 168V166.594L812.609 159.258C813.026 158.737 813.422 158.284 813.797 157.898H807.406V156.547H815.609V157.898L809.18 165.844L808.484 166.648H815.797V168H806.742ZM816.734 163.852C816.734 162.315 817.161 161.177 818.016 160.438C818.729 159.823 819.599 159.516 820.625 159.516C821.766 159.516 822.698 159.891 823.422 160.641C824.146 161.385 824.508 162.417 824.508 163.734C824.508 164.802 824.346 165.643 824.023 166.258C823.706 166.867 823.24 167.341 822.625 167.68C822.016 168.018 821.349 168.188 820.625 168.188C819.464 168.188 818.523 167.815 817.805 167.07C817.091 166.326 816.734 165.253 816.734 163.852ZM818.18 163.852C818.18 164.914 818.411 165.711 818.875 166.242C819.339 166.768 819.922 167.031 820.625 167.031C821.323 167.031 821.904 166.766 822.367 166.234C822.831 165.703 823.062 164.893 823.062 163.805C823.062 162.779 822.828 162.003 822.359 161.477C821.896 160.945 821.318 160.68 820.625 160.68C819.922 160.68 819.339 160.943 818.875 161.469C818.411 161.995 818.18 162.789 818.18 163.852ZM826.164 168V159.703H827.43V160.883C828.039 159.971 828.919 159.516 830.07 159.516C830.57 159.516 831.029 159.607 831.445 159.789C831.867 159.966 832.182 160.201 832.391 160.492C832.599 160.784 832.745 161.13 832.828 161.531C832.88 161.792 832.906 162.247 832.906 162.898V168H831.5V162.953C831.5 162.38 831.445 161.953 831.336 161.672C831.227 161.385 831.031 161.159 830.75 160.992C830.474 160.82 830.148 160.734 829.773 160.734C829.174 160.734 828.656 160.924 828.219 161.305C827.786 161.685 827.57 162.406 827.57 163.469V168H826.164ZM840.75 165.328L842.203 165.508C841.974 166.357 841.549 167.016 840.93 167.484C840.31 167.953 839.518 168.188 838.555 168.188C837.341 168.188 836.378 167.815 835.664 167.07C834.956 166.32 834.602 165.271 834.602 163.922C834.602 162.526 834.961 161.443 835.68 160.672C836.398 159.901 837.331 159.516 838.477 159.516C839.586 159.516 840.492 159.893 841.195 160.648C841.898 161.404 842.25 162.466 842.25 163.836C842.25 163.919 842.247 164.044 842.242 164.211H836.055C836.107 165.122 836.365 165.82 836.828 166.305C837.292 166.789 837.87 167.031 838.562 167.031C839.078 167.031 839.518 166.896 839.883 166.625C840.247 166.354 840.536 165.922 840.75 165.328ZM836.133 163.055H840.766C840.703 162.357 840.526 161.833 840.234 161.484C839.786 160.943 839.206 160.672 838.492 160.672C837.846 160.672 837.302 160.888 836.859 161.32C836.422 161.753 836.18 162.331 836.133 163.055Z" fill="#FF5252"/>
<path d="M494.203 150V138.547H498.5C499.375 138.547 500.076 138.664 500.602 138.898C501.133 139.128 501.547 139.484 501.844 139.969C502.146 140.448 502.297 140.951 502.297 141.477C502.297 141.966 502.164 142.427 501.898 142.859C501.633 143.292 501.232 143.641 500.695 143.906C501.388 144.109 501.919 144.456 502.289 144.945C502.664 145.435 502.852 146.013 502.852 146.68C502.852 147.216 502.737 147.716 502.508 148.18C502.284 148.638 502.005 148.992 501.672 149.242C501.339 149.492 500.919 149.682 500.414 149.812C499.914 149.938 499.299 150 498.57 150H494.203ZM495.719 143.359H498.195C498.867 143.359 499.349 143.315 499.641 143.227C500.026 143.112 500.315 142.922 500.508 142.656C500.706 142.391 500.805 142.057 500.805 141.656C500.805 141.276 500.714 140.943 500.531 140.656C500.349 140.365 500.089 140.167 499.75 140.062C499.411 139.953 498.831 139.898 498.008 139.898H495.719V143.359ZM495.719 148.648H498.57C499.06 148.648 499.404 148.63 499.602 148.594C499.951 148.531 500.242 148.427 500.477 148.281C500.711 148.135 500.904 147.924 501.055 147.648C501.206 147.367 501.281 147.044 501.281 146.68C501.281 146.253 501.172 145.883 500.953 145.57C500.734 145.253 500.43 145.031 500.039 144.906C499.654 144.776 499.096 144.711 498.367 144.711H495.719V148.648ZM510.438 147.328L511.891 147.508C511.661 148.357 511.237 149.016 510.617 149.484C509.997 149.953 509.206 150.188 508.242 150.188C507.029 150.188 506.065 149.815 505.352 149.07C504.643 148.32 504.289 147.271 504.289 145.922C504.289 144.526 504.648 143.443 505.367 142.672C506.086 141.901 507.018 141.516 508.164 141.516C509.273 141.516 510.18 141.893 510.883 142.648C511.586 143.404 511.938 144.466 511.938 145.836C511.938 145.919 511.935 146.044 511.93 146.211H505.742C505.794 147.122 506.052 147.82 506.516 148.305C506.979 148.789 507.557 149.031 508.25 149.031C508.766 149.031 509.206 148.896 509.57 148.625C509.935 148.354 510.224 147.922 510.438 147.328ZM505.82 145.055H510.453C510.391 144.357 510.214 143.833 509.922 143.484C509.474 142.943 508.893 142.672 508.18 142.672C507.534 142.672 506.99 142.888 506.547 143.32C506.109 143.753 505.867 144.331 505.82 145.055ZM512.922 150V148.859L518.203 142.797C517.604 142.828 517.076 142.844 516.617 142.844H513.234V141.703H520.016V142.633L515.523 147.898L514.656 148.859C515.286 148.812 515.878 148.789 516.43 148.789H520.266V150H512.922ZM521.672 140.164V138.547H523.078V140.164H521.672ZM521.672 150V141.703H523.078V150H521.672ZM530.906 147.328L532.359 147.508C532.13 148.357 531.706 149.016 531.086 149.484C530.466 149.953 529.674 150.188 528.711 150.188C527.497 150.188 526.534 149.815 525.82 149.07C525.112 148.32 524.758 147.271 524.758 145.922C524.758 144.526 525.117 143.443 525.836 142.672C526.555 141.901 527.487 141.516 528.633 141.516C529.742 141.516 530.648 141.893 531.352 142.648C532.055 143.404 532.406 144.466 532.406 145.836C532.406 145.919 532.404 146.044 532.398 146.211H526.211C526.263 147.122 526.521 147.82 526.984 148.305C527.448 148.789 528.026 149.031 528.719 149.031C529.234 149.031 529.674 148.896 530.039 148.625C530.404 148.354 530.693 147.922 530.906 147.328ZM526.289 145.055H530.922C530.859 144.357 530.682 143.833 530.391 143.484C529.943 142.943 529.362 142.672 528.648 142.672C528.003 142.672 527.458 142.888 527.016 143.32C526.578 143.753 526.336 144.331 526.289 145.055ZM534.117 150V141.703H535.383V142.961C535.706 142.372 536.003 141.984 536.273 141.797C536.549 141.609 536.852 141.516 537.18 141.516C537.654 141.516 538.135 141.667 538.625 141.969L538.141 143.273C537.797 143.07 537.453 142.969 537.109 142.969C536.802 142.969 536.526 143.062 536.281 143.25C536.036 143.432 535.862 143.688 535.758 144.016C535.602 144.516 535.523 145.062 535.523 145.656V150H534.117ZM544.172 150V138.547H551.898V139.898H545.688V143.445H551.062V144.797H545.688V150H544.172ZM553.172 145.852C553.172 144.315 553.599 143.177 554.453 142.438C555.167 141.823 556.036 141.516 557.062 141.516C558.203 141.516 559.135 141.891 559.859 142.641C560.583 143.385 560.945 144.417 560.945 145.734C560.945 146.802 560.784 147.643 560.461 148.258C560.143 148.867 559.677 149.341 559.062 149.68C558.453 150.018 557.786 150.188 557.062 150.188C555.901 150.188 554.961 149.815 554.242 149.07C553.529 148.326 553.172 147.253 553.172 145.852ZM554.617 145.852C554.617 146.914 554.849 147.711 555.312 148.242C555.776 148.768 556.359 149.031 557.062 149.031C557.76 149.031 558.341 148.766 558.805 148.234C559.268 147.703 559.5 146.893 559.5 145.805C559.5 144.779 559.266 144.003 558.797 143.477C558.333 142.945 557.755 142.68 557.062 142.68C556.359 142.68 555.776 142.943 555.312 143.469C554.849 143.995 554.617 144.789 554.617 145.852ZM568.016 146.961L569.398 147.141C569.247 148.094 568.859 148.841 568.234 149.383C567.615 149.919 566.852 150.188 565.945 150.188C564.81 150.188 563.896 149.818 563.203 149.078C562.516 148.333 562.172 147.268 562.172 145.883C562.172 144.987 562.32 144.203 562.617 143.531C562.914 142.859 563.365 142.357 563.969 142.023C564.578 141.685 565.24 141.516 565.953 141.516C566.854 141.516 567.591 141.745 568.164 142.203C568.737 142.656 569.104 143.302 569.266 144.141L567.898 144.352C567.768 143.794 567.536 143.375 567.203 143.094C566.875 142.812 566.477 142.672 566.008 142.672C565.299 142.672 564.724 142.927 564.281 143.438C563.839 143.943 563.617 144.745 563.617 145.844C563.617 146.958 563.831 147.768 564.258 148.273C564.685 148.779 565.242 149.031 565.93 149.031C566.482 149.031 566.943 148.862 567.312 148.523C567.682 148.185 567.917 147.664 568.016 146.961ZM576.016 148.977C575.495 149.419 574.992 149.732 574.508 149.914C574.029 150.096 573.513 150.188 572.961 150.188C572.049 150.188 571.349 149.966 570.859 149.523C570.37 149.076 570.125 148.505 570.125 147.812C570.125 147.406 570.216 147.036 570.398 146.703C570.586 146.365 570.828 146.094 571.125 145.891C571.427 145.688 571.766 145.534 572.141 145.43C572.417 145.357 572.833 145.286 573.391 145.219C574.526 145.083 575.362 144.922 575.898 144.734C575.904 144.542 575.906 144.419 575.906 144.367C575.906 143.794 575.773 143.391 575.508 143.156C575.148 142.839 574.615 142.68 573.906 142.68C573.245 142.68 572.755 142.797 572.438 143.031C572.125 143.26 571.893 143.669 571.742 144.258L570.367 144.07C570.492 143.482 570.698 143.008 570.984 142.648C571.271 142.284 571.685 142.005 572.227 141.812C572.768 141.615 573.396 141.516 574.109 141.516C574.818 141.516 575.393 141.599 575.836 141.766C576.279 141.932 576.604 142.143 576.812 142.398C577.021 142.648 577.167 142.966 577.25 143.352C577.297 143.591 577.32 144.023 577.32 144.648V146.523C577.32 147.831 577.349 148.659 577.406 149.008C577.469 149.352 577.589 149.682 577.766 150H576.297C576.151 149.708 576.057 149.367 576.016 148.977ZM575.898 145.836C575.388 146.044 574.622 146.221 573.602 146.367C573.023 146.451 572.615 146.544 572.375 146.648C572.135 146.753 571.951 146.906 571.82 147.109C571.69 147.307 571.625 147.529 571.625 147.773C571.625 148.148 571.766 148.461 572.047 148.711C572.333 148.961 572.75 149.086 573.297 149.086C573.839 149.086 574.32 148.969 574.742 148.734C575.164 148.495 575.474 148.169 575.672 147.758C575.823 147.44 575.898 146.971 575.898 146.352V145.836ZM579.477 150V138.547H580.883V150H579.477ZM587.703 150V138.547H592.023C592.784 138.547 593.365 138.583 593.766 138.656C594.328 138.75 594.799 138.93 595.18 139.195C595.56 139.456 595.865 139.823 596.094 140.297C596.328 140.771 596.445 141.292 596.445 141.859C596.445 142.833 596.135 143.659 595.516 144.336C594.896 145.008 593.776 145.344 592.156 145.344H589.219V150H587.703ZM589.219 143.992H592.18C593.159 143.992 593.854 143.81 594.266 143.445C594.677 143.081 594.883 142.568 594.883 141.906C594.883 141.427 594.76 141.018 594.516 140.68C594.276 140.336 593.958 140.109 593.562 140C593.307 139.932 592.836 139.898 592.148 139.898H589.219V143.992ZM597.672 145.852C597.672 144.315 598.099 143.177 598.953 142.438C599.667 141.823 600.536 141.516 601.562 141.516C602.703 141.516 603.635 141.891 604.359 142.641C605.083 143.385 605.445 144.417 605.445 145.734C605.445 146.802 605.284 147.643 604.961 148.258C604.643 148.867 604.177 149.341 603.562 149.68C602.953 150.018 602.286 150.188 601.562 150.188C600.401 150.188 599.461 149.815 598.742 149.07C598.029 148.326 597.672 147.253 597.672 145.852ZM599.117 145.852C599.117 146.914 599.349 147.711 599.812 148.242C600.276 148.768 600.859 149.031 601.562 149.031C602.26 149.031 602.841 148.766 603.305 148.234C603.768 147.703 604 146.893 604 145.805C604 144.779 603.766 144.003 603.297 143.477C602.833 142.945 602.255 142.68 601.562 142.68C600.859 142.68 600.276 142.943 599.812 143.469C599.349 143.995 599.117 144.789 599.117 145.852ZM607.109 140.164V138.547H608.516V140.164H607.109ZM607.109 150V141.703H608.516V150H607.109ZM610.664 150V141.703H611.93V142.883C612.539 141.971 613.419 141.516 614.57 141.516C615.07 141.516 615.529 141.607 615.945 141.789C616.367 141.966 616.682 142.201 616.891 142.492C617.099 142.784 617.245 143.13 617.328 143.531C617.38 143.792 617.406 144.247 617.406 144.898V150H616V144.953C616 144.38 615.945 143.953 615.836 143.672C615.727 143.385 615.531 143.159 615.25 142.992C614.974 142.82 614.648 142.734 614.273 142.734C613.674 142.734 613.156 142.924 612.719 143.305C612.286 143.685 612.07 144.406 612.07 145.469V150H610.664ZM622.641 148.742L622.844 149.984C622.448 150.068 622.094 150.109 621.781 150.109C621.271 150.109 620.875 150.029 620.594 149.867C620.312 149.706 620.115 149.495 620 149.234C619.885 148.969 619.828 148.414 619.828 147.57V142.797H618.797V141.703H619.828V139.648L621.227 138.805V141.703H622.641V142.797H621.227V147.648C621.227 148.049 621.25 148.307 621.297 148.422C621.349 148.536 621.43 148.628 621.539 148.695C621.654 148.763 621.815 148.797 622.023 148.797C622.18 148.797 622.385 148.779 622.641 148.742ZM623.461 147.523L624.852 147.305C624.93 147.862 625.146 148.289 625.5 148.586C625.859 148.883 626.359 149.031 627 149.031C627.646 149.031 628.125 148.901 628.438 148.641C628.75 148.375 628.906 148.065 628.906 147.711C628.906 147.393 628.768 147.143 628.492 146.961C628.299 146.836 627.82 146.677 627.055 146.484C626.023 146.224 625.307 146 624.906 145.812C624.51 145.62 624.208 145.357 624 145.023C623.797 144.685 623.695 144.312 623.695 143.906C623.695 143.536 623.779 143.195 623.945 142.883C624.117 142.565 624.349 142.302 624.641 142.094C624.859 141.932 625.156 141.797 625.531 141.688C625.911 141.573 626.318 141.516 626.75 141.516C627.401 141.516 627.971 141.609 628.461 141.797C628.956 141.984 629.32 142.24 629.555 142.562C629.789 142.88 629.951 143.307 630.039 143.844L628.664 144.031C628.602 143.604 628.419 143.271 628.117 143.031C627.82 142.792 627.398 142.672 626.852 142.672C626.206 142.672 625.745 142.779 625.469 142.992C625.193 143.206 625.055 143.456 625.055 143.742C625.055 143.924 625.112 144.089 625.227 144.234C625.341 144.385 625.521 144.51 625.766 144.609C625.906 144.661 626.32 144.781 627.008 144.969C628.003 145.234 628.695 145.453 629.086 145.625C629.482 145.792 629.792 146.036 630.016 146.359C630.24 146.682 630.352 147.083 630.352 147.562C630.352 148.031 630.214 148.474 629.938 148.891C629.667 149.302 629.273 149.622 628.758 149.852C628.242 150.076 627.659 150.188 627.008 150.188C625.93 150.188 625.107 149.964 624.539 149.516C623.977 149.068 623.617 148.404 623.461 147.523Z" fill="#A020A2"/>
<circle cx="813" cy="199.5" r="187.25" stroke="black" stroke-width="0.5"/>
<circle cx="813" cy="199.5" r="116.5" stroke="#FF5252" stroke-width="2" stroke-dasharray="4 4"/>
<line x1="626" y1="199" x2="696" y2="199" stroke="#FF5252" stroke-width="2" stroke-dasharray="4 4"/>
<line x1="931" y1="199" x2="1001" y2="199" stroke="#FF5252" stroke-width="2" stroke-dasharray="4 4"/>
<line x1="814" y1="12" x2="814" y2="82" stroke="#FF5252" stroke-width="2" stroke-dasharray="4 4"/>
<line x1="812" y1="385" x2="812" y2="315" stroke="#FF5252" stroke-width="2" stroke-dasharray="4 4"/>
</svg>
