<svg width="86" height="73" viewBox="0 0 86 73" fill="none" xmlns="http://www.w3.org/2000/svg">
<mask id="path-1-outside-1_4_14" maskUnits="userSpaceOnUse" x="0" y="0" width="86" height="73" fill="black">
<rect fill="white" width="86" height="73"/>
<path d="M60 1C73.8071 1 85 12.1929 85 26C85 39.8071 73.8071 51 60 51C55.3379 51 50.4465 54.0327 48.3554 58.1995C44.2483 66.3833 35.7806 72 26 72C12.1929 72 1 60.8071 1 47C1 33.1929 12.1929 22 26 22C30.6617 22 35.5526 18.9671 37.6436 14.8007C41.7509 6.61674 50.2192 1 60 1Z"/>
</mask>
<path d="M60 1C73.8071 1 85 12.1929 85 26C85 39.8071 73.8071 51 60 51C55.3379 51 50.4465 54.0327 48.3554 58.1995C44.2483 66.3833 35.7806 72 26 72C12.1929 72 1 60.8071 1 47C1 33.1929 12.1929 22 26 22C30.6617 22 35.5526 18.9671 37.6436 14.8007C41.7509 6.61674 50.2192 1 60 1Z" fill="#A020A2"/>
<path d="M37.6436 14.8007L36.7499 14.3521L37.6436 14.8007ZM48.3554 58.1995L47.4616 57.751L48.3554 58.1995ZM60 1V2C73.2548 2 84 12.7452 84 26H85H86C86 11.6406 74.3594 0 60 0V1ZM85 26H84C84 39.2548 73.2548 50 60 50V51V52C74.3594 52 86 40.3594 86 26H85ZM48.3554 58.1995L47.4616 57.751C43.5176 65.6099 35.3879 71 26 71V72V73C36.1734 73 44.979 67.1568 49.2491 58.6481L48.3554 58.1995ZM26 72V71C12.7452 71 2 60.2548 2 47H1H0C0 61.3594 11.6406 73 26 73V72ZM1 47H2C2 33.7452 12.7452 23 26 23V22V21C11.6406 21 0 32.6406 0 47H1ZM37.6436 14.8007L38.5374 15.2492C42.4816 7.39021 50.612 2 60 2V1V0C49.8265 0 41.0202 5.84328 36.7499 14.3521L37.6436 14.8007ZM26 22V23C31.042 23 36.2776 19.7518 38.5374 15.2492L37.6436 14.8007L36.7499 14.3521C34.8276 18.1823 30.2813 21 26 21V22ZM60 51V50C54.9577 50 49.7215 53.2479 47.4616 57.751L48.3554 58.1995L49.2491 58.6481C51.1715 54.8175 55.7182 52 60 52V51Z" fill="black" mask="url(#path-1-outside-1_4_14)"/>
</svg>
