<svg width="73" height="40" viewBox="0 0 73 40" fill="none" xmlns="http://www.w3.org/2000/svg">
<mask id="path-1-outside-1_35_5" maskUnits="userSpaceOnUse" x="0" y="0" width="73" height="40" fill="black">
<rect fill="white" width="73" height="40"/>
<path d="M36.2783 1C45.7137 1.00011 53.3623 8.64959 53.3623 18.085C53.3623 18.444 53.8041 18.6535 54.0871 18.4325C55.9683 16.9638 58.3346 16.0879 60.9062 16.0879C67.0332 16.0879 72 21.0547 72 27.1816C71.9999 33.3085 67.0331 38.2754 60.9062 38.2754C57.9486 38.2754 55.2618 37.1178 53.2736 35.2311C51.2394 33.3007 46.4673 32.0825 43.9637 33.3461C41.6537 34.5121 39.0428 35.1689 36.2783 35.1689C29.7617 35.1689 24.0979 31.5202 21.2172 26.1544C20.0624 24.0032 16.8533 22.8547 14.4681 23.3764C13.7033 23.5436 12.9089 23.6318 12.0938 23.6318C5.96697 23.6318 1.00021 18.6648 1 12.5381C1 6.41118 5.96684 1.44434 12.0938 1.44434C14.6906 1.44434 17.0788 2.33657 18.9687 3.83122C20.8797 5.34247 24.2566 5.70345 26.2256 4.26858C29.0464 2.21288 32.5209 1 36.2783 1Z"/>
</mask>
<path d="M36.2783 1C45.7137 1.00011 53.3623 8.64959 53.3623 18.085C53.3623 18.444 53.8041 18.6535 54.0871 18.4325C55.9683 16.9638 58.3346 16.0879 60.9062 16.0879C67.0332 16.0879 72 21.0547 72 27.1816C71.9999 33.3085 67.0331 38.2754 60.9062 38.2754C57.9486 38.2754 55.2618 37.1178 53.2736 35.2311C51.2394 33.3007 46.4673 32.0825 43.9637 33.3461C41.6537 34.5121 39.0428 35.1689 36.2783 35.1689C29.7617 35.1689 24.0979 31.5202 21.2172 26.1544C20.0624 24.0032 16.8533 22.8547 14.4681 23.3764C13.7033 23.5436 12.9089 23.6318 12.0938 23.6318C5.96697 23.6318 1.00021 18.6648 1 12.5381C1 6.41118 5.96684 1.44434 12.0938 1.44434C14.6906 1.44434 17.0788 2.33657 18.9687 3.83122C20.8797 5.34247 24.2566 5.70345 26.2256 4.26858C29.0464 2.21288 32.5209 1 36.2783 1Z" fill="#4D6CEB"/>
<path d="M36.2783 1L36.2783 0H36.2783V1ZM53.3623 18.085L54.3623 18.085V18.085H53.3623ZM72 27.1816L73 27.1817V27.1816H72ZM36.2783 35.1689V36.1689H36.2783L36.2783 35.1689ZM1 12.5381H0V12.5381L1 12.5381ZM12.0938 1.44434V0.444336V1.44434ZM21.2172 26.1544L22.0983 25.6814L21.2172 26.1544ZM53.2736 35.2311L52.5852 35.9565L53.2736 35.2311ZM43.9637 33.3461L43.5131 32.4534L43.9637 33.3461ZM18.9687 3.83122L18.3484 4.61558L18.9687 3.83122ZM54.0871 18.4325L54.7025 19.2207L54.0871 18.4325ZM36.2783 1L36.2783 2C45.1613 2.0001 52.3623 9.20181 52.3623 18.085H53.3623H54.3623C54.3623 8.09736 46.266 0.000111282 36.2783 0L36.2783 1ZM54.0871 18.4325L54.7025 19.2207C56.4144 17.8842 58.5657 17.0879 60.9062 17.0879V16.0879V15.0879C58.1035 15.0879 55.5222 16.0434 53.4717 17.6443L54.0871 18.4325ZM60.9062 16.0879V17.0879C66.4809 17.0879 71 21.607 71 27.1816H72H73C73 20.5024 67.5854 15.0879 60.9062 15.0879V16.0879ZM72 27.1816L71 27.1816C70.9999 32.7562 66.4808 37.2754 60.9062 37.2754V38.2754V39.2754C67.5854 39.2754 72.9999 33.8607 73 27.1817L72 27.1816ZM60.9062 38.2754V37.2754C58.2148 37.2754 55.7718 36.2232 53.962 34.5057L53.2736 35.2311L52.5852 35.9565C54.7518 38.0125 57.6824 39.2754 60.9062 39.2754V38.2754ZM43.9637 33.3461L43.5131 32.4534C41.3396 33.5505 38.8827 34.1689 36.2783 34.1689L36.2783 35.1689L36.2783 36.1689C39.2029 36.1689 41.9677 35.4737 44.4143 34.2389L43.9637 33.3461ZM36.2783 35.1689V34.1689C30.1445 34.1689 24.8117 30.7357 22.0983 25.6814L21.2172 26.1544L20.3362 26.6274C23.384 32.3048 29.3788 36.1689 36.2783 36.1689V35.1689ZM14.4681 23.3764L14.2545 22.3995C13.5594 22.5515 12.8366 22.6318 12.0938 22.6318V23.6318V24.6318C12.9813 24.6318 13.8473 24.5358 14.6818 24.3533L14.4681 23.3764ZM12.0938 23.6318V22.6318C6.51929 22.6318 2.00019 18.1126 2 12.5381L1 12.5381L0 12.5381C0.000230134 19.2171 5.41465 24.6318 12.0938 24.6318V23.6318ZM1 12.5381H2C2 6.96346 6.51913 2.44434 12.0938 2.44434V1.44434V0.444336C5.41456 0.444336 0 5.85889 0 12.5381H1ZM12.0938 1.44434V2.44434C14.4575 2.44434 16.6287 3.25559 18.3484 4.61558L18.9687 3.83122L19.589 3.04685C17.5288 1.41755 14.9237 0.444336 12.0938 0.444336V1.44434ZM26.2256 4.26858L26.8145 5.07674C29.47 3.14153 32.7396 2 36.2783 2V1V0C32.3022 0 28.6228 1.28424 25.6366 3.46041L26.2256 4.26858ZM21.2172 26.1544L22.0983 25.6814C21.3776 24.3389 20.065 23.3825 18.6709 22.8328C17.2729 22.2816 15.6714 22.0896 14.2545 22.3995L14.4681 23.3764L14.6818 24.3533C15.65 24.1415 16.8457 24.263 17.9372 24.6934C19.0326 25.1253 19.902 25.8187 20.3362 26.6274L21.2172 26.1544ZM53.2736 35.2311L53.962 34.5057C52.7708 33.3753 50.8809 32.5266 49.0099 32.1143C47.1563 31.7058 45.0652 31.67 43.5131 32.4534L43.9637 33.3461L44.4143 34.2389C45.3658 33.7586 46.9125 33.7001 48.5795 34.0674C50.2289 34.4309 51.7422 35.1564 52.5852 35.9565L53.2736 35.2311ZM18.9687 3.83122L18.3484 4.61558C19.485 5.51443 21.0061 6.03969 22.5005 6.15189C23.991 6.26379 25.5848 5.97287 26.8145 5.07674L26.2256 4.26858L25.6366 3.46041C24.8973 3.99916 23.8182 4.24519 22.6503 4.1575C21.4863 4.07011 20.3634 3.65925 19.589 3.04685L18.9687 3.83122ZM53.3623 18.085L52.3623 18.0849C52.3623 19.3027 53.7833 19.9384 54.7025 19.2207L54.0871 18.4325L53.4717 17.6443C53.6736 17.4867 53.9072 17.5059 54.0495 17.5738C54.1932 17.6425 54.3623 17.8186 54.3623 18.085L53.3623 18.085Z" fill="black" mask="url(#path-1-outside-1_35_5)"/>
</svg>
